<svg width="24" height="24" viewBox="0 0 24 24" fill="none" xmlns="http://www.w3.org/2000/svg">
<rect width="24" height="24" fill="white"/>
<rect x="2" y="2" width="20" height="20" rx="2" fill="#F18AB8" stroke="#F18AB8" stroke-width="2"/>
<path d="M6.0898 11.0669L3.51341 13.9295C3.18289 14.2968 3 14.7734 3 15.2675V19C3 20.1046 3.89543 21 5 21H19C20.1046 21 21 20.1046 21 19V10.8357C21 10.301 20.7859 9.78851 20.4054 9.41274L18.7356 7.76358C17.8215 6.86077 16.3055 7.04166 15.6295 8.13421L13.329 11.8521C12.6503 12.949 11.1261 13.1261 10.214 12.214L8.9906 10.9906C8.18035 10.1804 6.85634 10.2152 6.0898 11.0669Z" fill="white"/>
<circle cx="6" cy="6" r="2" fill="white"/>
</svg>
