<svg width="24" height="24" viewBox="0 0 24 24" fill="none" xmlns="http://www.w3.org/2000/svg">
<rect width="24" height="24" fill="white"/>
<circle cx="11.9999" cy="12.0001" r="10" transform="rotate(60 11.9999 12.0001)" stroke="#333333" stroke-width="2"/>
<circle cx="12.0005" cy="12" r="3" fill="#333333"/>
<path d="M19.7676 12.1396C19.1539 12.8279 17.9903 14.0447 16.5732 15.0938C15.0856 16.195 13.4696 17 12 17C10.5304 17 8.91438 16.195 7.42676 15.0938C6.01003 14.0449 4.84717 12.828 4.2334 12.1396C4.71528 11.4022 5.65121 10.1264 6.96582 9.02832C8.32679 7.89159 10.0242 7 12 7C13.9758 7 15.6732 7.89159 17.0342 9.02832C18.3491 10.1266 19.2858 11.4023 19.7676 12.1396Z" stroke="#333333" stroke-width="2"/>
</svg>
