<svg width="24" height="24" viewBox="0 0 24 24" fill="none" xmlns="http://www.w3.org/2000/svg">
<rect width="24" height="24" fill="white"/>
<rect x="2" y="2" width="20" height="20" rx="2" stroke="#333333" stroke-width="2"/>
<path d="M5.65826 11.3417L2.58579 14.4142C2.21071 14.7893 2 15.298 2 15.8284V19.5C2 20.6046 2.89543 21.5 4 21.5H20C21.1046 21.5 22 20.6046 22 19.5V11.3981C22 10.8269 21.7557 10.2828 21.3287 9.90331L19.1933 8.00516C18.2942 7.20593 16.898 7.3756 16.2165 8.36692L13.2915 12.6214C12.6072 13.6168 11.2034 13.783 10.3055 12.975L8.4104 11.2694C7.61975 10.5578 6.41043 10.5896 5.65826 11.3417Z" fill="#333333"/>
<circle cx="6" cy="6" r="2" fill="#333333"/>
</svg>
